<?xml version="1.0" encoding="utf-8"?>
<!-- Generator: Adobe Illustrator 16.0.0, SVG Export Plug-In . SVG Version: 6.00 Build 0)  -->
<!DOCTYPE svg PUBLIC "-//W3C//DTD SVG 1.1//EN" "http://www.w3.org/Graphics/SVG/1.1/DTD/svg11.dtd">
<svg version="1.1" id="Layer_1" xmlns="http://www.w3.org/2000/svg" xmlns:xlink="http://www.w3.org/1999/xlink" x="0px" y="0px"
	 width="24px" height="24px" viewBox="0 0 24 24" enable-background="new 0 0 24 24" xml:space="preserve">
<path fill="#F4F4F4" d="M12,0C5.373,0,0,5.373,0,12s5.373,12,12,12s12-5.373,12-12S18.627,0,12,0z"/>
<path fill="#595959" d="M11.998,20.5c-3.123,0-5.914-1.441-7.749-3.689c0.259-0.588,0.783-0.996,1.867-1.246
	c2.244-0.518,4.459-0.98,3.393-2.945C6.354,6.799,8.609,3.5,11.998,3.5c3.322,0,5.634,3.178,2.488,9.119
	c-1.034,1.951,1.102,2.416,3.395,2.945c1.082,0.25,1.609,0.654,1.871,1.24C17.915,19.059,15.122,20.5,11.998,20.5z"/>
</svg>
